<svg width="73" height="73" fill="none" xmlns="http://www.w3.org/2000/svg"><path d="M42 47h2v-1h-2v1Zm1-12-1-1a1 1 0 1 0-1 2l2-1Zm0 30 1-1-1-1a1 1 0 1 0 0 2Zm4 0 1-1-1-1a1 1 0 1 0 0 2ZM25 21a4 4 0 0 1 3 0h1l-1-2a6 6 0 0 0-4 0 1 1 0 1 0 1 2Zm-7 0a1 1 0 0 0 1-2 6 6 0 0 0-5 0 1 1 0 1 0 1 2 4 4 0 0 1 3 0Zm8 13a1 1 0 1 0-2 0l-1 1-1-1v-1h1l1-3v-2l-1-1h-4l-2 1v2l2 3h1v1l-1 1-1-1a1 1 0 1 0-2 0 3 3 0 0 0 5 3 3 3 0 0 0 5-3Zm-7-5h3l-1 3-2-3Zm14 6 2-5 1-5 1 1a3 3 0 0 0 3 1l3-3v-7l-2-3-5-4a4 4 0 0 0-6 1l-5-2h-7V5c0-1 1-3 3-3h6c0 3 2 6 5 6h9c3 0 5-3 5-6h6c2 0 3 2 3 3v28a1 1 0 1 0 2 0V5c0-3-2-5-5-5H21c-3 0-5 2-5 5v4l-4 2v-1H7l-6 4-1 3v7l2 3h1l3-1v-1l1 5 2 5a13 13 0 0 0 24 0ZM29 2h15c0 2-1 3-3 3h-9c-2 0-3-1-3-3Zm3 10 1-1 1 1 6 4v9l-2-1a44 44 0 0 1-6-10v-2ZM4 24l-1 1-1-1v-7l1-1 5-4 1-1 1 1 1 2a44 44 0 0 1-7 10Zm7 10-2-5-1-6a46 46 0 0 0 5-8v-2l4-2h8l4 2 1 2a46 46 0 0 0 4 8l-1 6-2 5a11 11 0 0 1-20 0Zm33 5 1-1-1-1-1 2h1ZM29 64l1 1 1-1-1-1-1 1Zm17-21a1 1 0 0 0-3-1 1 1 0 0 0 3 1ZM25 54v-1a1 1 0 0 0-1 2l1-1Zm-1 3-1 1 1 1 1-1-1-1Zm36-21c-7 0-13 6-13 13 0 5 2 9 6 14l2 1v4c0 1-1 3-3 3H21c-2 0-3-2-3-3V45a1 1 0 1 0-2 0v23c0 3 2 5 5 5h31c3 0 5-2 5-5v-2l2 1a1 1 0 0 0 1 0c1 0 13-8 13-18 0-7-6-13-13-13Zm0 29c-2-1-11-7-11-16a11 11 0 0 1 22 0c0 8-9 14-11 16ZM27 51a1 1 0 1 0-1-1 1 1 0 1 0 1 1Zm33-8a5 5 0 1 0 0 10 5 5 0 0 0 0-10Zm0 8a3 3 0 1 1 0-6 3 3 0 0 1 0 6ZM27 63v-2h-1v2h1Zm5-14-1-1a1 1 0 0 0 0 2l1-1Zm8-1a1 1 0 0 0-2 1l2 1v-2Zm-1 17a1 1 0 1 0 0-2 1 1 0 1 0 0 2Zm0-32-1-1a1 1 0 1 0 0 2l1-1Zm-5 30-1 1a1 1 0 0 0 2 0l-1-1Zm2-14-1-1a1 1 0 1 0 0 2l1-1Z" fill="#000"/></svg>