<svg width="1440" height="308" fill="none" xmlns="http://www.w3.org/2000/svg"><mask id="a" style="mask-type:alpha" maskUnits="userSpaceOnUse" x="0" y="0" width="1440" height="308"><rect width="1440" height="308" rx="5" fill="#78C0DE"/></mask><g mask="url(#a)"><rect width="1444" height="308" rx="5" fill="#78C0DE"/><g opacity=".1" fill="#fff"><path d="M1349 201a71 71 0 0 0-104 60l-3 59a45 45 0 0 0 30 45 45 45 0 0 0 52-16v-1c15-19 37-32 61-35a45 45 0 0 0 40-36 45 45 0 0 0-24-49l-52-27ZM1225 272c6-8 9-18 7-29-2-10-8-19-16-26-9-7-19-10-29-10-11 0-20 5-27 12-13 16-8 41 9 55 15 11 33 13 47 5l9-7ZM1258 208c21-12 27-41 14-64-14-23-41-32-62-20s-27 40-13 64c13 22 40 31 61 20ZM1328 182l11-4c15-9 23-28 19-48-3-12-9-22-18-29s-19-10-30-8c-10 3-19 9-25 19-5 10-7 22-4 33 5 25 26 41 47 37ZM1404 131c-20-2-39 14-41 37-3 23 11 43 31 45 8 1 15-1 21-4 11-6 19-18 20-33 3-23-11-43-31-45Z"/></g><g opacity=".1" fill="#fff"><path d="M208 271a41 41 0 0 0-67-18l-25 23a26 26 0 0 0-6 30 26 26 0 0 0 28 15c14-2 28 1 39 10a26 26 0 0 0 31 1 26 26 0 0 0 10-29l-10-32ZM129 249c6-1 11-4 14-9 4-5 5-11 4-17 0-6-3-12-7-16-5-4-10-6-16-6-12 2-20 13-19 26 2 11 8 19 17 21l7 1ZM169 236c13 4 27-5 31-20s-4-30-17-33c-13-4-27 5-31 20s3 30 17 33ZM208 255l6 2c9 3 20-2 27-12 4-5 5-12 4-18 0-7-4-12-9-16-5-3-11-4-18-2-6 2-11 6-15 11-8 12-6 28 5 35ZM259 265c-7-10-21-10-32-2-10 8-13 22-5 31 2 4 6 6 10 7 7 2 15 0 22-5 10-8 12-22 5-31Z"/></g><g opacity=".1" fill="#fff"><path d="M40 178a31 31 0 0 0-25-45l-26-2a19 19 0 0 0-19 13 19 19 0 0 0 6 22v1c9 6 14 16 15 26a19 19 0 0 0 16 18 19 19 0 0 0 21-10l12-23ZM10 124c4 3 8 4 13 3 4 0 8-3 11-6 3-4 5-8 5-13 0-4-2-8-5-11-7-6-18-4-24 3-5 6-6 14-3 20l3 4ZM38 139c5 9 17 12 27 7 10-6 14-18 9-27s-17-12-27-6c-10 5-14 17-9 26ZM49 170l1 4c4 7 12 11 21 9 5-1 9-4 12-7 3-4 5-9 4-13-1-5-4-9-8-11-4-3-9-3-14-2-11 2-18 11-16 20ZM70 203c1-9-6-17-16-18-10-2-19 4-20 13l2 9c3 5 8 8 14 9 10 1 19-5 20-13Z"/></g><g opacity=".1" fill="#fff"><path d="M353 189a11 11 0 0 0-16 8l-2 8a7 7 0 0 0 4 7 7 7 0 0 0 8-1c2-3 6-5 9-5a7 7 0 0 0 7-9l-3-3-7-5ZM333 198l2-4-2-4-4-2-4 1c-3 2-2 6 0 9 2 1 5 2 7 1l1-1ZM339 189c3-1 5-6 3-9-2-4-5-5-9-4-3 1-4 6-3 9 2 4 6 5 9 4ZM350 186h2c2-1 3-4 3-7l-2-5-5-1-3 2-2 5c1 4 4 6 7 6ZM362 180c-3-1-6 1-7 5-1 3 1 6 4 7l3-1c2 0 3-2 4-4 1-3-1-7-4-7Z"/></g><g opacity=".1" fill="#fff"><path d="M361 163a11 11 0 0 0-16-9l-7 4a7 7 0 0 0-4 7 7 7 0 0 0 6 6c4 0 7 2 9 5a7 7 0 0 0 8 2 7 7 0 0 0 4-6v-9ZM343 152l4-1 2-4-1-4-3-3c-3 0-6 2-7 5 0 3 1 5 3 7h2Z"/><path d="M353 152c3 2 7 0 9-3 2-4 2-8-2-10-3-1-7 0-9 3-2 4-1 8 2 10ZM362 159l1 1c2 1 5 1 8-1l2-5-1-4-4-2-5 2c-3 3-3 6-1 9ZM374 165c-1-3-5-4-8-3-3 2-5 5-3 8l2 2h5c4-1 5-4 4-7Z"/></g><g opacity=".1" fill="#fff"><path d="M628 51a11 11 0 0 0-13-13l-8 2a7 7 0 0 0-5 6 7 7 0 0 0 4 7c3 1 6 4 7 7a7 7 0 0 0 11 3l2-4 2-8ZM613 36h4l4-4v-4l-3-4c-3-1-6 1-7 4-1 2-1 5 1 7l1 1ZM624 38c2 2 6 2 9-1 3-2 3-7 1-9-3-3-7-2-10 0-3 3-3 7 0 10ZM630 47l1 1c2 2 5 3 7 1l4-3v-5l-4-3-5 1c-3 1-4 5-3 8ZM640 56c0-3-3-5-7-5-3 1-6 4-5 7l1 2c2 2 4 2 6 2 3 0 6-3 5-6Z"/></g><g opacity=".1" fill="#fff"><path d="M621 292a47 47 0 0 0-77-21l-29 26a30 30 0 0 0-7 35 30 30 0 0 0 32 17c16-2 33 2 46 13a30 30 0 0 0 35 1 30 30 0 0 0 12-34l-12-37ZM529 266c7-1 13-4 17-10s6-13 5-20-4-14-9-18c-5-5-12-8-18-7-14 1-23 15-22 30 1 12 9 22 19 24l8 1ZM575 252c16 4 32-7 37-24 4-17-5-34-20-38-15-5-32 6-36 23-5 17 4 35 19 39ZM621 273l7 3c11 3 24-3 31-14 4-7 6-14 5-22-1-7-4-14-10-18s-14-5-21-2c-7 2-13 6-18 13-9 14-6 32 6 40ZM680 284c-8-10-25-11-37-2-12 10-15 26-6 37 3 3 7 6 12 7 8 2 17 0 25-6 12-9 15-25 6-36Z"/></g><g opacity=".1" fill="#fff"><path d="M1362 6a21 21 0 0 0 33 16l15-9a14 14 0 0 0 6-15 13 13 0 0 0-12-10h-1c-7-1-14-4-19-10a14 14 0 0 0-24 10l2 18ZM1401 26c-3-1-6 0-8 3-3 2-4 5-4 8-1 3 0 6 2 9s5 4 8 4c6 1 11-4 12-11 0-5-3-10-7-13h-3Z"/><path d="M1379 28c-6-3-14 0-18 7s-1 16 5 19c7 3 15 0 18-7 4-8 2-16-5-19ZM1361 15l-3-2c-5-3-11-2-15 3-3 2-4 6-4 9-1 3 0 7 3 9 2 2 5 3 9 3 3 0 6-2 9-4 5-6 5-14 1-18ZM1335 4c3 6 11 7 17 4s9-10 6-15l-5-5c-3-1-8-1-11 1-7 3-9 10-7 15Z"/></g><g opacity=".1" fill="#fff"><path d="M887 155a12 12 0 0 0-15 14l2 10a8 8 0 0 0 7 6 8 8 0 0 0 8-5c2-4 5-7 9-8a8 8 0 0 0 4-8 8 8 0 0 0-6-7l-9-2ZM869 172v-5c0-2-2-3-3-4h-6l-3 3c-2 3 0 7 4 9 2 1 5 0 7-1l1-2Z"/><path d="M872 160c3-3 3-8 0-11-4-3-9-3-11-1-3 3-3 8 0 11 3 4 8 4 11 1ZM883 153l1-2c2-2 3-5 1-8l-4-4h-5l-4 4 1 6c2 3 6 5 10 4ZM893 141c-4 0-6 4-5 8 0 4 3 6 7 6l3-2 2-6c-1-4-4-7-7-6Z"/></g><g opacity=".1" fill="#fff"><path d="M979 195a12 12 0 0 0-21 2l-4 9a8 8 0 0 0 2 9 8 8 0 0 0 9 1c4-2 8-2 12-1a8 8 0 0 0 10-8l-2-4-6-8ZM955 198l2-4v-6l-4-3h-5c-3 2-4 6-2 9 1 3 4 5 7 4h2Z"/><path d="M964 190c4-1 7-5 6-9 0-5-4-8-8-7-4 0-7 4-6 9 0 4 4 7 8 7ZM977 190l2 1c2-1 5-3 6-7l-1-5-4-3c-2-1-4 0-5 1-2 1-3 3-3 5-1 4 1 8 5 8ZM992 188c-3-2-7-1-9 3-2 3-1 7 2 9h3c2 0 5-1 6-3 2-4 1-8-2-9Z"/></g><g opacity=".1" fill="#fff"><path d="M855 62a12 12 0 0 0-18 10l-1 10a8 8 0 0 0 5 7 8 8 0 0 0 9-2c3-3 6-5 11-6a8 8 0 0 0 6-6 8 8 0 0 0-3-8l-9-5ZM834 73l1-5-3-4-5-2-4 2c-2 3-2 7 1 9s6 3 8 2l2-2Z"/><path d="M840 63c3-2 4-7 2-11s-6-6-10-4-5 7-3 11 7 5 11 4ZM852 59l1-1c3-1 5-5 4-8 0-2-1-4-3-5-1-1-3-2-5-1-2 0-3 1-4 3l-1 5c1 4 4 7 8 7ZM865 50c-4 0-7 3-7 7-1 3 1 7 5 7h3c2-1 3-3 4-6 0-3-2-7-5-8Z"/></g><g opacity=".1" fill="#fff"><path d="M737 51a12 12 0 0 0-10 18l5 9a8 8 0 0 0 8 4 8 8 0 0 0 7-7c0-4 2-8 5-11a8 8 0 0 0 3-8 8 8 0 0 0-8-5h-10ZM725 73c1-2 0-4-1-5l-5-2c-2-1-3 0-5 1l-3 4c0 3 3 6 7 7 3 0 5-1 7-3v-2Z"/><path d="M725 60c1-3 0-8-4-10s-9-1-11 3c-2 3 0 8 4 10s9 1 11-3ZM732 50l2-1c1-3 0-6-2-9l-5-2c-2-1-4 0-5 1l-2 5 2 5c3 3 8 4 10 1ZM739 36c-3 2-4 6-3 9 2 4 6 6 9 4l2-2v-7c-1-3-5-5-8-4Z"/></g><g opacity=".1" fill="#fff"><path d="M157 93a12 12 0 0 0-14-14l-9 1a8 8 0 0 0-7 7 8 8 0 0 0 5 8c4 2 7 5 8 9a8 8 0 0 0 12 3l3-4 2-10ZM141 76h5l4-4v-5c0-2-1-3-3-4-3-2-7 0-9 3-1 3 0 6 1 8l2 2ZM153 79c3 3 7 3 11-1 3-3 4-8 1-10-3-3-8-3-11 0-4 3-4 8-1 11ZM160 89l1 2c2 2 5 3 8 1 2-1 4-2 4-4l1-5-4-4-6 1c-4 2-6 6-4 9ZM171 100c0-4-4-6-8-6-4 1-6 4-6 7l1 4 7 2c4-1 6-4 6-7Z"/></g><g opacity=".1" fill="#fff"><path d="M424 9a26 26 0 0 0 43 0l12-18a16 16 0 0 0-2-19 16 16 0 0 0-18-5h-1c-8 4-17 4-25 0a16 16 0 0 0-19 5 16 16 0 0 0-2 19l12 18ZM476 9c-4 2-6 5-8 8-1 4-1 8 1 11 1 4 4 7 7 9s7 2 10 1c7-3 10-12 7-19-2-6-8-10-13-10h-4ZM453 24c-8 0-15 7-15 17s7 17 15 17c9 0 16-7 16-17s-7-17-16-17ZM427 19l-4-1c-6 0-12 5-15 12v12c2 4 5 7 9 8 3 1 7 1 11-2 3-2 6-5 7-9 3-9-1-18-8-20ZM394 21c6 5 15 3 20-4s4-16-2-20l-7-2c-5 0-10 2-13 6-5 7-4 16 2 20Z"/></g><g opacity=".2" fill="#fff"><path d="M1191-6a11 11 0 0 0-17 5l-3 8a7 7 0 0 0 3 8 7 7 0 0 0 8-1c3-2 7-3 10-2a7 7 0 0 0 8-8l-2-4-7-6ZM1171 0l2-4-2-5-3-2c-2-1-3 0-5 1s-2 5 0 8c1 2 4 3 6 2h2Z"/></g></g></svg>