<svg width="78" height="77" fill="none" xmlns="http://www.w3.org/2000/svg"><path d="M76 1v45l-1 2 1 2v10l-1 2 1 2v12H45l-2-1-3 1H2V1h74Z" fill="#3775A4"/><path d="m76 46-1 2 1 2v10l-1 2 1 2v7l-5 2c-2 2-5 3-8 3H45l-2-1-3 1h-2l-3-5c-2-2-2-4-2-7v-3l-2-6-1-2-3-9-3-5-7 2h-4a2 2 0 0 1 0-4h2l7-4v-2H7v-6a3 3 0 0 1 2-2l6-1 2-3 8-2v-7l1-4 10 17 4 5c4 5 10 9 17 10l4 1h8l7-2v9Z" fill="#2A597C"/><path d="m39 45-5-5 2-3 6 5-3 3Z" fill="#DBDBDB"/><path d="m39 45 6 5 3-4-6-4-3 3Z" fill="#EBEBEB"/><path d="M76 46v4c-7 2-16 2-24 1l-7-1 3-4h1c9 2 19 1 27 0Z" fill="#EBEBEB"/><path d="M46 41c-3 4-5 9-6 14v1h4l6-11h1a3 3 0 0 0 0-3 3 3 0 0 0-5-1ZM76 60v4a14 14 0 0 1-10 6 37 37 0 0 1-21-5 1 1 0 0 1 1-2l6 2 1-5-1-4 3-9 2-4a1 1 0 0 1 2 1l-2 4c-2 2-2 5-2 8v3l-1 7 5 1V56c-1-3 0-6 1-9l3-4a1 1 0 0 1 2 1l-3 4-1 8 1 3-1 8a35 35 0 0 0 5 0v-7l-1-4c-1-3-1-6 1-9l1-5a1 1 0 1 1 3 1l-2 5v7l1 4v7a11 11 0 0 0 4-2v-7l-1-3v-9l1-3a1 1 0 1 1 3 1l-2 3v7l1 4 1 3Z" fill="#DBDBDB"/><path d="M35 1h3v7h-3V1ZM17 1h3v8h-3V1ZM43 1h2v4h-2V1ZM51 1h2v7h-2V1ZM58 1h3v4h-3V1ZM67 1h3v7h-3V1ZM29 72h2v4h-2v-4ZM21 69h3v7h-3v-7ZM13 72h3v4h-3v-4ZM2 64h4v3H2v-3ZM2 56h6v3H2v-3ZM2 49h4v2H2v-2ZM2 9h4v3H2V9ZM9 1h3v4H9V1ZM52 15h2v3h-2v-3ZM57 15h10v3H57v-3ZM52 21h10v2H52v-2ZM65 21h2v2h-2v-2Z" fill="#2F638B"/><path d="m40 56-2 3 2 4v13h5V63l2-4-3-3h-4ZM36 37l-2 3-5-4-3-5 4-3 2 2 4 7Z" fill="#EBEBEB"/><path d="M32 30a4 4 0 0 1-4 2h-1l-1-1 4-3 2 2Z" fill="#DADADA"/><path d="M28 22h-5a5 5 0 0 0-3 1l-3 3h-5a4 4 0 0 0-4 4v1h20a4 4 0 0 0 4-3v-1a4 4 0 0 0-4-5Z" fill="#EBEBEB"/><path d="M13 37h2l7-4a3 3 0 1 1 7 0v3l-12 5h-4a2 2 0 1 1 0-4Z" fill="#DBDBDB"/><path d="M76 0H2a1 1 0 0 0-1 1v75a1 1 0 0 0 1 1h74a1 1 0 0 0 2-1V1a1 1 0 0 0-2-1ZM39 56l-2 2a1 1 0 0 0 0 2l2 3v11h-1l-2-3-2-7v-3l-2-6-1-3-2-9h-1l-3-4 4-2 4 4 5 5 3 2-2 7v1Zm-9-24h1l4 5-1 1-4-3v-3Zm1-6v1a3 3 0 0 1-2 2 4 4 0 0 0-7 1H10a3 3 0 0 1 2-2l5-1h1l2-3 3-1h5a3 3 0 0 1 3 3Zm-8 9a1 1 0 0 0 1-2 2 2 0 0 1 3 0v2l-10 5h-4a1 1 0 0 1 0-1h2v-1l8-3Zm13 5v-1l4 3-1 1-3-3Zm8 22v12h-2V63l-1-1-2-3 2-1h3l1 1-1 3Zm-1-7h-1c0-5 2-9 5-13a2 2 0 0 1 3 0 2 2 0 0 1 0 2l-1 1-6 10Zm-2-10 1-1v2l-1-1Zm9 3h4l-1 2h-1l-3-1 1-1Zm-4 8 2-4h4v4l1 4-1 5-5-2 1-4a1 1 0 0 0 0-1l-2-2Zm29 18h-3l3-1v1Zm0-4-4 2c-3 2-6 2-8 2H47v-8a37 37 0 0 0 19 4c3-1 7-2 9-5v5ZM55 59v-6h4v14l-5-1 1-7Zm1-9 1-2h3l-1 2h-3Zm6 3h3v3l1 4v7h-5l1-8-1-3v-3h1Zm0-3v-2h3v2h-3Zm9 2 1 2 1 3v7l-4 2v-7l-1-4-1-2 4-1Zm-4-2 1-2h3v2h-4Zm8 6-1-3v-1h1v4Zm0-7h-1v-2h1v2Zm0-8a1 1 0 0 0-2 1l-1 3h-3l1-2a1 1 0 1 0-3-1l-1 4h-2l1-2a1 1 0 0 0-2-1l-2 3h-3l1-2a1 1 0 0 0-2-1l-2 3-3-1a4 4 0 0 0 1-3l-1-1a4 4 0 0 0-7-1l-1 2-2-1-5-5-5-6 1-2 1-1a5 5 0 0 0-6-6h-5a6 6 0 0 0-4 1l-2 2-6 1-3 2v-2a1 1 0 0 1 1-1l6-1h1l2-3 7-2a1 1 0 0 0 1-2V9l9 15 4 5c5 5 11 9 17 10l4 1h9l6-1v2Zm0-5-7 2h-7l-4-1c-6-2-12-5-16-10l-4-5L27 6a1 1 0 0 0-2 0l-1 4-1 6-6 2h-1l-2 3H9a4 4 0 0 0-3 4v6a1 1 0 0 0 1 1h14v1l-7 3h-1a3 3 0 0 0 0 6h4a1 1 0 0 0 1 0l5-2 3 4 3 9 1 3 1 5v3c0 3 1 6 3 8l1 2h-4v-2h-2v2h-5v-5h-3v5h-5v-2h-3v2H3v-7h3v-3H3v-5h5v-3H3v-5h3v-2H3V12h3V9H3V3h6v2h3V3h5v6h3V3h15v5h3V3h5v2h2V3h6v5h2V3h5v2h3V3h6v5h3V3h5v33Z" fill="#000"/><path d="M52 15h2v3h-2v-3ZM57 15h10v3H57v-3ZM52 21h10v2H52v-2ZM65 21h2v2h-2v-2Z" fill="#000"/></svg>